<?xml version="1.0" standalone="no"?>
<!DOCTYPE svg PUBLIC "-//W3C//DTD SVG 20010904//EN"
 "http://www.w3.org/TR/2001/REC-SVG-20010904/DTD/svg10.dtd">
<svg version="1.0" xmlns="http://www.w3.org/2000/svg"
 width="500.000000pt" height="500.000000pt" viewBox="0 0 500.000000 500.000000"
 preserveAspectRatio="xMidYMid meet">

<g transform="translate(0.000000,500.000000) scale(0.100000,-0.100000)"
fill="#000000" stroke="none">
<path d="M484 4629 c-46 -13 -91 -69 -99 -121 -3 -24 -5 -942 -3 -2040 l3
-1997 21 -27 c11 -15 33 -37 48 -48 l27 -21 2032 -3 c1498 -2 2043 0 2074 9
48 13 85 49 102 98 16 49 16 3997 0 4052 -14 45 -51 82 -98 98 -43 14 -4058
14 -4107 0z m4081 -2124 l0 -2000 -2025 0 -2025 0 -3 1990 c-1 1095 0 1996 3
2003 3 10 414 12 2027 10 l2023 -3 0 -2000z"/>
<path d="M2270 4430 c-90 -11 -169 -30 -299 -72 -376 -120 -739 -443 -894
-798 -40 -91 -94 -260 -108 -340 -18 -99 -18 -421 0 -520 25 -141 100 -341
174 -465 151 -256 376 -464 647 -600 101 -51 306 -117 424 -137 92 -16 430
-16 522 0 118 20 323 86 424 137 272 136 493 342 647 600 74 124 149 323 174
465 18 99 18 421 0 520 -25 142 -100 341 -174 465 -157 264 -386 473 -660 605
-106 51 -291 112 -399 130 -85 15 -386 21 -478 10z m430 -135 c327 -56 645
-228 836 -452 220 -260 334 -561 334 -883 0 -207 -40 -382 -129 -567 -146
-302 -358 -509 -668 -655 -207 -96 -390 -132 -643 -125 -159 4 -187 8 -310 40
-414 108 -728 363 -911 740 -89 185 -129 360 -129 567 0 207 40 382 129 567
201 414 559 680 1036 768 97 18 350 18 455 0z"/>
<path d="M2240 3460 l0 -300 -330 0 -330 0 0 -200 0 -200 330 0 330 0 0 -300
0 -300 225 0 225 0 0 300 0 300 335 0 335 0 0 200 0 200 -335 0 -335 0 0 300
0 300 -225 0 -225 0 0 -300z"/>
<path d="M2835 1348 c-87 -31 -122 -92 -112 -200 7 -83 30 -114 139 -188 53
-36 101 -75 107 -88 25 -52 4 -118 -35 -110 -16 3 -19 13 -22 71 l-3 67 -89 0
-90 0 0 -66 c0 -86 20 -127 79 -162 41 -24 56 -27 141 -27 85 0 100 3 141 27
59 35 74 70 73 170 -2 113 -18 138 -145 224 l-104 71 -3 46 c-2 36 1 49 13 53
25 10 45 -15 45 -57 l0 -39 91 0 92 0 -6 66 c-6 78 -33 114 -105 139 -51 17
-162 19 -207 3z"/>
<path d="M600 1000 l0 -352 189 4 c172 3 191 5 211 23 37 33 50 78 50 170 0
107 -16 149 -65 172 l-36 17 33 16 c42 20 62 73 52 146 -8 64 -33 107 -76 131
-27 15 -63 18 -195 21 l-163 4 0 -352z m238 218 c19 -19 16 -124 -4 -132 -40
-15 -44 -9 -44 69 0 66 2 75 18 75 10 0 23 -5 30 -12z m-10 -254 c21 -6 22
-12 22 -90 0 -72 -3 -85 -19 -94 -38 -20 -41 -13 -41 90 0 55 3 100 8 100 4 0
17 -3 30 -6z"/>
<path d="M1120 1000 l0 -350 170 0 170 0 0 70 0 70 -75 0 -75 0 0 75 0 75 60
0 60 0 0 65 0 65 -60 0 -60 0 0 70 0 70 65 0 65 0 0 70 0 70 -160 0 -160 0 0
-350z"/>
<path d="M1510 1000 l0 -350 85 0 85 0 0 212 c0 116 2 209 4 207 2 -2 16 -87
30 -189 36 -256 26 -230 95 -230 69 0 59 -26 93 235 l23 180 3 -207 2 -208 90
0 90 0 0 350 0 350 -128 0 -128 0 -18 -134 c-10 -73 -21 -139 -25 -145 -4 -6
-15 40 -25 102 -9 61 -20 127 -23 145 l-5 32 -124 0 -124 0 0 -350z"/>
<path d="M2350 1000 l0 -350 170 0 170 0 0 70 0 70 -75 0 -75 0 0 75 0 75 60
0 60 0 0 65 0 65 -60 0 -60 0 0 70 0 70 65 0 65 0 0 70 0 70 -160 0 -160 0 0
-350z"/>
<path d="M3180 1280 l0 -70 60 0 60 0 0 -280 0 -280 95 0 95 0 0 280 0 280 60
0 60 0 0 70 0 70 -215 0 -215 0 0 -70z"/>
<path d="M3626 1018 c-26 -183 -49 -341 -52 -351 -5 -16 3 -17 98 -15 l103 3
5 60 5 60 37 3 37 3 3 -63 3 -63 98 -3 c72 -2 97 0 97 10 0 13 -98 629 -105
666 -5 22 -8 22 -143 22 l-138 0 -48 -332z m210 24 c18 -152 20 -142 -22 -142
-33 0 -35 2 -30 28 2 15 10 73 17 130 7 56 15 100 17 97 3 -3 11 -53 18 -113z"/>
<path d="M4090 1001 l0 -351 95 0 95 0 0 160 c0 132 3 160 14 160 8 0 22 -7
30 -16 13 -13 16 -42 16 -160 l0 -144 90 0 90 0 0 146 c0 83 -5 154 -11 165
-5 11 -24 28 -41 39 l-30 18 28 13 c44 22 55 53 51 144 -4 90 -20 125 -71 153
-25 13 -65 18 -193 20 l-163 4 0 -351z m231 219 c15 -9 19 -22 19 -65 0 -43
-4 -56 -19 -65 -37 -19 -41 -12 -41 65 0 77 4 84 41 65z"/>
</g>
</svg>
